<?xml version="1.0" standalone="no"?>
<!DOCTYPE svg PUBLIC "-//W3C//DTD SVG 20010904//EN"
 "http://www.w3.org/TR/2001/REC-SVG-20010904/DTD/svg10.dtd">
<svg version="1.0" xmlns="http://www.w3.org/2000/svg"
 width="2048.000000pt" height="2048.000000pt" viewBox="0 0 2048.000000 2048.000000"
 preserveAspectRatio="xMidYMid meet">

<g transform="translate(0.000000,2048.000000) scale(0.100000,-0.100000)"
fill="#000000" stroke="none">
<path d="M10730 17350 l0 -1370 22 0 c23 0 131 -49 136 -62 2 -4 12 -8 23 -8
10 0 19 -4 19 -10 0 -5 8 -10 18 -10 17 0 60 -17 104 -41 10 -5 26 -9 37 -9
11 0 21 -3 23 -7 4 -10 127 -73 142 -73 7 0 43 -16 80 -35 38 -19 74 -35 81
-35 16 0 99 -42 103 -52 2 -5 13 -8 25 -8 12 0 53 -16 91 -35 39 -19 78 -35
88 -35 10 0 18 -3 18 -8 0 -4 15 -13 33 -21 17 -7 45 -20 61 -27 16 -8 37 -14
48 -14 10 0 18 -4 18 -10 0 -5 9 -10 20 -10 11 0 20 -3 20 -7 0 -9 48 -33 65
-33 7 0 25 -6 41 -14 16 -7 44 -20 62 -27 17 -8 32 -17 32 -21 0 -5 9 -8 19
-8 10 0 45 -13 76 -30 31 -16 63 -30 71 -30 7 0 43 -16 80 -35 36 -19 71 -35
78 -35 17 0 66 -24 66 -32 0 -3 15 -9 33 -13 35 -7 160 -65 165 -77 2 -5 12
-8 21 -8 10 0 40 -11 67 -25 27 -14 59 -25 72 -25 12 0 22 -4 22 -10 0 -5 9
-10 20 -10 11 0 20 -3 20 -7 0 -9 48 -33 65 -33 7 0 34 -11 61 -25 27 -14 54
-25 60 -25 6 0 46 -18 89 -40 43 -22 86 -40 96 -40 11 0 19 -4 19 -10 0 -5 6
-10 13 -10 6 0 34 -11 61 -25 27 -14 58 -25 68 -25 10 0 18 -4 18 -10 0 -5 9
-10 20 -10 11 0 20 -3 20 -8 0 -9 74 -42 94 -42 13 0 94 -38 106 -50 11 -11
51 -30 63 -30 8 0 27 -6 43 -14 16 -7 44 -20 62 -27 17 -8 32 -17 32 -21 0 -5
9 -8 19 -8 10 0 45 -13 76 -30 31 -16 62 -30 69 -30 7 0 43 -16 80 -35 38 -19
75 -35 82 -35 14 0 54 -19 64 -31 9 -10 78 -39 93 -39 17 0 100 -41 105 -52 2
-5 12 -8 22 -8 10 0 35 -9 57 -19 76 -39 106 -51 124 -51 9 0 19 -3 21 -8 5
-12 130 -70 166 -77 17 -4 32 -11 32 -16 0 -5 9 -9 20 -9 11 0 20 -3 20 -7 0
-9 48 -33 66 -33 6 0 42 -16 80 -35 37 -19 73 -35 80 -35 7 0 38 -13 69 -30
31 -16 66 -30 76 -30 10 0 19 -4 19 -10 0 -5 7 -10 15 -10 13 0 15 150 15
1288 l0 1287 -32 14 c-72 30 -143 66 -146 73 -2 4 -12 8 -23 8 -10 0 -19 4
-19 8 0 5 -17 15 -37 23 -20 8 -57 24 -82 37 -24 12 -52 22 -62 22 -9 0 -19 4
-21 8 -2 4 -30 20 -63 36 -120 56 -150 71 -153 79 -2 4 -12 7 -21 7 -10 0 -38
10 -62 23 -25 12 -62 28 -82 36 -20 8 -37 18 -37 23 0 4 -9 8 -19 8 -11 0 -21
4 -23 8 -5 11 -112 62 -132 62 -15 0 -55 18 -66 30 -8 10 -196 100 -206 100
-5 0 -95 43 -199 95 -104 52 -197 95 -207 95 -10 0 -18 5 -18 10 0 6 -5 10
-12 10 -16 0 -162 72 -166 82 -2 4 -12 8 -23 8 -10 0 -19 4 -19 9 0 5 -15 12
-32 16 -30 6 -156 62 -168 75 -3 3 -16 10 -30 17 -118 54 -186 89 -188 95 -2
4 -12 8 -23 8 -11 0 -27 4 -37 9 -9 6 -44 22 -77 37 -33 16 -61 32 -63 36 -2
4 -12 8 -22 8 -10 0 -20 3 -22 8 -5 11 -88 52 -105 52 -16 0 -84 29 -93 40 -5
6 -133 68 -187 91 -18 8 -33 17 -33 21 0 5 -8 8 -18 8 -10 0 -49 16 -88 35
-38 19 -75 35 -81 35 -7 0 -13 5 -13 10 0 6 -9 10 -19 10 -11 0 -21 3 -23 8
-4 10 -128 72 -143 72 -6 0 -101 45 -210 100 -110 55 -207 100 -217 100 -10 0
-18 5 -18 10 0 6 -5 10 -12 10 -16 0 -202 92 -206 102 -2 4 -12 8 -23 8 -10 0
-19 5 -19 10 0 6 -10 10 -22 10 -23 0 -131 49 -136 62 -2 4 -12 8 -23 8 -10 0
-19 4 -19 8 0 5 -17 15 -37 23 -20 8 -57 24 -82 37 -24 12 -52 22 -62 22 -9 0
-19 4 -21 8 -1 4 -30 20 -63 36 -33 15 -68 31 -77 37 -10 5 -22 9 -28 9 -7 0
-10 -451 -10 -1370z"/>
<path d="M10560 15440 c0 -5 -8 -10 -19 -10 -10 0 -32 -7 -47 -15 -16 -8 -36
-15 -46 -15 -9 0 -36 -10 -60 -21 -23 -12 -60 -30 -81 -40 -22 -11 -47 -19
-57 -19 -11 0 -22 -4 -25 -10 -3 -5 -16 -10 -29 -10 -12 0 -31 -7 -42 -15 -10
-8 -27 -15 -36 -15 -10 0 -33 -9 -53 -20 -20 -11 -44 -20 -55 -20 -11 0 -20
-3 -20 -7 0 -10 -49 -33 -69 -33 -9 0 -29 -7 -45 -15 -15 -8 -37 -15 -47 -15
-11 0 -19 -4 -19 -10 0 -5 -9 -10 -19 -10 -10 0 -45 -13 -76 -30 -31 -16 -65
-30 -75 -30 -11 0 -22 -4 -25 -10 -3 -5 -14 -10 -23 -10 -9 0 -30 -7 -46 -15
-15 -8 -34 -15 -40 -15 -18 0 -66 -24 -66 -32 0 -5 -11 -8 -24 -8 -14 0 -28
-4 -31 -10 -3 -5 -14 -10 -24 -10 -10 0 -32 -7 -47 -15 -16 -8 -39 -15 -51
-15 -13 0 -23 -3 -23 -7 0 -9 -49 -33 -67 -33 -7 0 -28 -9 -48 -20 -20 -11
-44 -20 -55 -20 -11 0 -20 -4 -20 -10 0 -5 -17 -12 -37 -16 -21 -4 -53 -15
-71 -26 -18 -10 -41 -18 -52 -18 -11 0 -20 -3 -20 -7 0 -9 -48 -33 -66 -33 -6
0 -25 -7 -40 -15 -16 -8 -39 -15 -51 -15 -13 0 -23 -4 -23 -10 0 -5 -9 -10
-20 -10 -11 0 -20 -4 -20 -10 0 -5 -9 -10 -20 -10 -11 0 -35 -9 -55 -20 -20
-11 -44 -20 -55 -20 -11 0 -20 -4 -20 -10 0 -5 -18 -13 -40 -16 -22 -4 -43
-11 -46 -15 -3 -5 -13 -9 -23 -9 -21 0 -71 -22 -71 -32 0 -5 -9 -8 -20 -8 -11
0 -34 -8 -52 -18 -18 -11 -50 -22 -70 -26 -21 -4 -63 -20 -94 -36 -31 -17 -64
-30 -74 -30 -11 0 -22 -4 -25 -10 -3 -5 -17 -10 -31 -10 -13 0 -24 -3 -24 -7
0 -10 -49 -33 -69 -33 -9 0 -29 -7 -45 -15 -15 -8 -37 -15 -47 -15 -11 0 -19
-4 -19 -10 0 -5 -9 -10 -20 -10 -11 0 -20 -4 -20 -10 0 -5 -9 -10 -20 -10 -11
0 -34 -8 -52 -18 -18 -11 -50 -22 -70 -26 -21 -4 -63 -20 -94 -36 -31 -17 -65
-30 -75 -30 -10 0 -19 -4 -19 -10 0 -5 -8 -10 -19 -10 -10 0 -32 -7 -47 -15
-16 -8 -36 -15 -46 -15 -9 0 -35 -9 -57 -20 -23 -11 -59 -29 -82 -40 -22 -11
-47 -20 -54 -20 -7 0 -26 -7 -41 -15 -16 -8 -37 -15 -46 -15 -9 0 -20 -4 -23
-10 -3 -5 -15 -10 -25 -10 -11 0 -35 -9 -55 -20 -20 -11 -44 -20 -55 -20 -11
0 -20 -3 -20 -7 0 -10 -49 -33 -69 -33 -9 0 -29 -7 -45 -15 -15 -8 -37 -15
-47 -15 -11 0 -19 -4 -19 -10 0 -5 -9 -10 -20 -10 -11 0 -20 -4 -20 -10 0 -5
-11 -10 -24 -10 -14 0 -28 -4 -31 -10 -3 -5 -17 -10 -30 -10 -13 0 -26 -4 -30
-9 -3 -5 -19 -13 -37 -16 -17 -4 -47 -16 -65 -26 -19 -11 -39 -19 -46 -19 -18
0 -67 -24 -67 -32 0 -5 -9 -8 -20 -8 -11 0 -35 -9 -55 -20 -20 -11 -43 -20
-53 -20 -9 0 -30 -7 -46 -15 -15 -8 -37 -15 -47 -15 -18 0 -19 -18 -19 -580 0
-380 3 -580 10 -580 6 0 10 3 10 8 0 8 48 32 66 32 6 0 25 7 40 15 16 8 39 15
52 15 12 0 22 5 22 10 0 6 9 10 20 10 11 0 35 9 55 20 20 11 42 20 50 20 8 0
30 9 49 19 19 11 52 23 73 27 21 4 53 15 71 26 18 10 41 18 52 18 11 0 20 3
20 8 0 8 48 32 66 32 6 0 25 7 40 15 16 8 39 15 52 15 12 0 22 3 22 8 0 10 50
32 71 32 10 0 21 5 24 10 3 6 17 10 31 10 13 0 24 5 24 10 0 6 9 10 20 10 11
0 20 5 20 10 0 6 10 10 23 10 12 0 35 7 51 15 15 8 34 15 40 15 18 0 66 24 66
33 0 4 9 7 20 7 11 0 34 8 52 18 18 11 50 22 71 26 20 4 37 11 37 16 0 6 11
10 24 10 14 0 28 5 31 10 3 6 14 10 25 10 10 0 35 9 57 19 67 34 111 51 127
51 8 0 31 9 51 20 20 11 44 20 55 20 11 0 20 5 20 10 0 6 9 10 20 10 11 0 35
9 55 20 20 11 43 20 53 20 9 0 26 7 36 15 11 8 28 15 38 15 9 0 33 9 53 20 20
11 44 20 55 20 11 0 20 5 20 10 0 6 9 10 20 10 11 0 20 5 20 10 0 6 11 10 24
10 14 0 28 5 31 10 3 6 16 10 28 10 12 0 35 7 51 15 15 8 37 15 47 15 11 0 19
3 19 8 0 8 49 32 67 32 7 0 28 9 47 19 19 11 52 23 73 27 21 4 53 15 71 26 18
10 41 18 52 18 11 0 20 5 20 10 0 6 9 10 20 10 11 0 20 5 20 10 0 6 8 10 19
10 10 0 32 7 47 15 16 8 37 15 47 15 9 0 25 4 35 9 74 37 106 51 118 51 7 0
28 8 47 19 18 10 48 22 65 26 18 3 34 11 37 16 4 5 14 9 25 9 16 0 45 12 122
51 10 5 24 9 32 9 7 0 27 7 42 15 16 8 38 15 49 15 11 0 31 9 45 20 14 11 35
20 47 20 12 0 25 5 28 10 3 6 15 10 26 10 17 0 56 17 69 30 11 11 57 29 90 35
44 8 90 27 90 37 0 5 9 8 20 8 11 0 35 9 55 20 20 11 42 20 49 20 8 0 27 7 42
15 16 8 37 15 46 15 9 0 20 5 23 10 3 6 15 10 25 10 11 0 35 9 55 20 20 11 44
20 55 20 11 0 20 3 20 8 0 9 49 32 69 32 9 0 29 7 45 15 15 8 37 15 47 15 11
0 19 5 19 10 0 6 9 10 20 10 11 0 20 5 20 10 0 6 11 10 24 10 14 0 28 5 31 10
3 6 17 10 30 10 13 0 26 4 30 9 3 5 19 13 37 16 17 4 47 16 65 26 43 24 74 24
118 -1 20 -11 41 -20 48 -20 7 0 43 -16 81 -35 39 -19 78 -35 88 -35 10 0 18
-3 18 -8 0 -4 15 -13 33 -21 17 -7 45 -20 61 -27 16 -8 34 -14 41 -14 17 0 65
-24 65 -32 0 -5 9 -8 20 -8 11 0 20 -4 20 -10 0 -5 8 -10 18 -10 11 0 32 -6
48 -14 16 -7 44 -20 62 -27 17 -8 32 -17 32 -21 0 -5 9 -8 20 -8 11 0 20 -4
20 -10 0 -5 8 -10 18 -10 10 0 41 -11 68 -25 27 -14 54 -25 60 -25 6 0 46 -18
89 -40 43 -22 86 -40 96 -40 11 0 19 -3 19 -8 0 -4 15 -13 33 -21 17 -7 45
-20 61 -27 16 -8 34 -14 41 -14 17 0 65 -24 65 -32 0 -5 9 -8 20 -8 11 0 20
-4 20 -10 0 -5 8 -10 18 -10 19 0 48 -12 125 -51 22 -10 47 -19 57 -19 10 0
20 -4 22 -8 5 -13 113 -62 136 -62 12 0 22 -4 22 -10 0 -5 9 -10 20 -10 11 0
20 -3 20 -7 0 -9 48 -33 65 -33 7 0 34 -11 61 -25 27 -14 54 -25 60 -25 6 0
46 -18 89 -40 43 -22 86 -40 96 -40 11 0 19 -4 19 -10 0 -5 6 -10 13 -10 6 0
34 -11 61 -25 27 -14 58 -25 68 -25 10 0 18 -4 18 -10 0 -5 9 -10 20 -10 11 0
20 -3 20 -8 0 -9 74 -42 94 -42 17 0 100 -42 104 -52 2 -5 11 -8 21 -8 9 0 48
-16 87 -35 38 -19 79 -35 91 -35 12 0 23 -3 25 -7 4 -11 87 -53 102 -53 17 0
66 -24 66 -32 0 -3 13 -9 30 -13 16 -4 32 -11 35 -16 4 -5 14 -9 25 -9 20 0
103 -40 108 -52 2 -5 12 -8 21 -8 16 0 59 -17 103 -41 10 -5 27 -9 38 -9 11 0
20 -4 20 -10 0 -5 9 -10 19 -10 11 0 21 -3 23 -7 4 -11 87 -53 104 -53 20 0
94 -33 94 -42 0 -5 9 -8 19 -8 10 0 45 -13 76 -30 31 -16 63 -30 71 -30 7 0
43 -16 80 -35 36 -19 71 -35 78 -35 17 0 66 -24 66 -32 0 -4 17 -10 37 -14 20
-4 61 -20 91 -35 30 -16 62 -29 72 -29 10 0 20 -4 22 -8 5 -11 112 -62 132
-62 15 0 54 -18 66 -30 11 -11 51 -30 63 -30 8 0 36 -11 63 -25 27 -14 55 -25
62 -25 6 0 12 -4 12 -10 0 -5 9 -10 19 -10 10 0 45 -13 76 -30 31 -16 66 -30
76 -30 10 0 19 -4 19 -10 0 -5 7 -10 15 -10 13 0 15 69 15 564 l0 565 -22 7
c-13 4 -25 9 -28 13 -8 10 -132 71 -145 71 -7 0 -33 11 -59 25 -26 14 -53 25
-61 25 -16 0 -99 42 -103 53 -2 4 -12 7 -21 7 -18 0 -48 12 -124 51 -22 10
-47 19 -57 19 -10 0 -20 3 -22 8 -4 10 -87 52 -104 52 -20 0 -94 33 -94 42 0
5 -8 8 -19 8 -10 0 -53 18 -96 40 -43 22 -83 40 -89 40 -6 0 -33 11 -60 25
-27 14 -55 25 -63 25 -12 0 -52 19 -63 30 -12 12 -51 30 -66 30 -20 0 -127 51
-132 62 -2 4 -12 8 -21 8 -10 0 -40 11 -67 25 -27 14 -57 25 -67 25 -16 0 -54
17 -67 30 -11 11 -51 30 -63 30 -8 0 -36 11 -63 25 -27 14 -54 25 -60 25 -6 0
-46 18 -89 40 -43 22 -86 40 -96 40 -11 0 -19 4 -19 9 0 5 -13 12 -30 16 -16
4 -32 11 -35 16 -4 5 -14 9 -25 9 -16 0 -97 37 -110 50 -13 13 -51 30 -67 30
-10 0 -40 11 -67 25 -27 14 -57 25 -67 25 -9 0 -19 3 -21 8 -5 12 -88 52 -108
52 -11 0 -21 4 -25 9 -3 5 -19 12 -35 16 -17 4 -30 10 -30 13 0 8 -49 32 -66
32 -7 0 -38 14 -69 30 -31 17 -62 30 -69 30 -6 0 -33 11 -60 25 -27 14 -58 25
-68 25 -10 0 -18 5 -18 10 0 6 -9 10 -20 10 -11 0 -20 3 -20 8 0 9 -74 42 -94
42 -17 0 -100 42 -104 53 -2 4 -12 7 -22 7 -10 0 -35 9 -57 19 -76 39 -106 51
-124 51 -9 0 -19 3 -21 8 -4 10 -87 52 -103 52 -8 0 -44 16 -81 35 -37 19 -73
35 -79 35 -16 0 -99 42 -103 53 -2 4 -13 7 -25 7 -12 0 -53 16 -91 35 -39 19
-78 35 -87 35 -10 0 -19 3 -21 8 -4 10 -87 52 -104 52 -20 0 -94 33 -94 42 0
5 -9 8 -19 8 -10 0 -45 14 -76 30 -31 17 -63 30 -71 30 -7 0 -43 16 -80 35
-36 19 -71 35 -78 35 -17 0 -66 24 -66 32 0 4 -17 10 -37 14 -21 4 -53 15 -71
26 -35 19 -92 25 -92 8z"/>
<path d="M10745 13520 c-16 -10 -37 -19 -46 -19 -9 -1 -30 -8 -45 -16 -16 -8
-37 -15 -46 -15 -9 0 -20 -4 -23 -10 -3 -5 -15 -10 -25 -10 -11 0 -35 -9 -55
-20 -20 -11 -44 -20 -55 -20 -11 0 -20 -3 -20 -8 0 -9 -46 -29 -90 -37 -44 -8
-90 -28 -90 -37 0 -5 -9 -8 -20 -8 -11 0 -35 -9 -55 -20 -20 -11 -44 -20 -55
-20 -10 0 -21 -4 -25 -9 -3 -5 -19 -13 -37 -16 -17 -4 -47 -16 -65 -26 -19
-11 -40 -19 -48 -19 -9 0 -23 -4 -33 -9 -77 -40 -153 -71 -187 -77 -22 -4 -42
-10 -45 -13 -9 -11 -50 -31 -64 -31 -12 0 -44 -14 -118 -51 -10 -5 -26 -9 -35
-9 -10 0 -31 -7 -47 -15 -15 -8 -37 -15 -47 -15 -11 0 -19 -4 -19 -10 0 -5 -9
-10 -20 -10 -11 0 -20 -4 -20 -10 0 -5 -9 -10 -20 -10 -11 0 -34 -8 -52 -18
-18 -11 -50 -22 -70 -26 -21 -4 -38 -11 -38 -16 0 -6 -11 -10 -24 -10 -14 0
-28 -4 -31 -10 -3 -5 -14 -10 -24 -10 -21 0 -71 -22 -71 -32 0 -5 -8 -8 -19
-8 -10 0 -32 -7 -47 -15 -16 -8 -37 -15 -46 -15 -10 0 -33 -9 -53 -20 -20 -11
-44 -20 -55 -20 -11 0 -20 -4 -20 -10 0 -5 -9 -10 -20 -10 -11 0 -35 -9 -55
-20 -20 -11 -44 -20 -53 -20 -10 0 -27 -7 -38 -15 -10 -8 -27 -15 -36 -15 -10
0 -33 -9 -53 -20 -20 -11 -44 -20 -55 -20 -11 0 -20 -4 -20 -10 0 -5 -9 -10
-20 -10 -11 0 -20 -4 -20 -10 0 -5 -10 -10 -22 -10 -13 0 -36 -7 -52 -15 -15
-8 -35 -15 -42 -15 -8 0 -22 -4 -32 -9 -74 -37 -106 -51 -118 -51 -7 0 -28 -8
-47 -19 -18 -10 -48 -22 -65 -26 -18 -3 -34 -11 -37 -16 -4 -5 -14 -9 -24 -9
-21 0 -71 -22 -71 -32 0 -5 -11 -8 -24 -8 -14 0 -28 -4 -31 -10 -3 -5 -14 -10
-24 -10 -10 0 -32 -7 -47 -15 -16 -8 -39 -15 -51 -15 -13 0 -23 -4 -23 -10 0
-5 -9 -10 -20 -10 -11 0 -20 -4 -20 -10 0 -5 -9 -10 -20 -10 -11 0 -35 -9 -55
-20 -20 -11 -44 -20 -55 -20 -11 0 -20 -4 -20 -10 0 -5 -18 -13 -40 -16 -22
-4 -43 -11 -46 -15 -3 -5 -13 -9 -23 -9 -21 0 -71 -22 -71 -32 0 -5 -9 -8 -20
-8 -11 0 -35 -9 -55 -20 -20 -11 -43 -20 -51 -20 -15 0 -67 -20 -106 -41 -10
-5 -24 -9 -33 -9 -8 0 -30 -9 -50 -20 -20 -11 -44 -20 -55 -20 -11 0 -20 -4
-20 -10 0 -5 -17 -12 -37 -16 -21 -4 -53 -15 -71 -26 -18 -10 -41 -18 -52 -18
-11 0 -20 -3 -20 -7 0 -11 -50 -33 -71 -33 -10 0 -21 -4 -24 -10 -3 -5 -15
-10 -27 -10 -20 0 -59 -15 -131 -51 -22 -10 -44 -19 -51 -19 -18 0 -66 -24
-66 -32 0 -5 -8 -8 -19 -8 -10 0 -32 -7 -47 -15 -16 -8 -36 -15 -45 -15 -20 0
-69 -23 -69 -32 0 -5 -9 -8 -20 -8 -11 0 -35 -9 -55 -20 -20 -11 -44 -20 -55
-20 -20 0 -20 -10 -20 -605 0 -520 2 -605 14 -605 8 0 18 5 21 10 3 6 14 10
24 10 10 0 32 7 47 15 16 8 36 15 45 15 20 0 69 23 69 33 0 4 9 7 20 7 11 0
35 9 55 20 20 11 44 20 55 20 11 0 20 5 20 10 0 6 8 10 19 10 10 0 32 7 47 15
16 8 36 15 45 15 20 0 69 23 69 33 0 4 9 7 20 7 11 0 35 9 55 20 20 11 42 20
49 20 8 0 27 7 42 15 16 8 37 15 46 15 9 0 20 5 23 10 3 6 15 10 25 10 11 0
35 9 55 20 20 11 44 20 55 20 11 0 20 3 20 8 0 9 49 32 69 32 9 0 29 7 45 15
15 8 37 15 47 15 11 0 19 5 19 10 0 6 9 10 20 10 11 0 35 9 55 20 20 11 44 20
55 20 10 0 21 4 25 9 3 5 19 13 37 16 17 4 47 16 65 26 19 11 39 19 46 19 18
0 67 24 67 33 0 4 8 7 19 7 10 0 32 7 47 15 16 8 36 15 46 15 14 0 44 13 120
51 10 5 24 9 33 9 8 0 30 9 50 20 20 11 44 20 53 20 10 0 27 7 38 15 10 8 29
15 41 15 12 0 25 5 28 10 3 6 14 10 24 10 21 0 71 22 71 33 0 4 9 7 20 7 11 0
34 8 52 18 18 11 50 22 71 26 20 4 37 11 37 16 0 6 9 10 20 10 11 0 35 9 55
20 20 11 42 20 50 20 9 0 23 4 33 9 39 21 91 41 106 41 8 0 31 9 51 20 20 11
44 20 55 20 11 0 20 5 20 10 0 6 9 10 20 10 11 0 34 8 52 18 18 11 50 22 71
26 20 4 37 11 37 16 0 6 9 10 20 10 11 0 35 9 55 20 20 11 44 20 55 20 11 0
20 5 20 10 0 6 9 10 20 10 11 0 20 4 20 9 0 5 21 12 46 16 25 3 62 15 80 26
19 10 43 19 54 19 11 0 20 3 20 8 0 8 48 32 66 32 6 0 25 7 40 15 16 8 37 15
46 15 9 0 20 5 23 10 3 6 15 10 25 10 11 0 35 9 55 20 20 11 44 20 55 20 11 0
20 3 20 8 0 9 49 32 69 32 9 0 29 7 45 15 15 8 35 15 42 15 8 0 22 4 32 9 74
37 106 51 118 51 7 0 29 9 48 19 19 11 52 23 73 27 21 4 53 15 71 26 18 10 41
18 52 18 11 0 20 3 20 8 0 8 48 32 66 32 6 0 25 7 40 15 16 8 39 15 52 15 12
0 22 5 22 10 0 6 9 10 20 10 11 0 35 9 55 20 20 11 42 20 50 20 15 0 56 20 65
31 3 4 25 10 49 14 25 4 60 16 78 26 19 11 42 19 53 19 11 0 20 3 20 8 0 8 48
32 66 32 6 0 25 7 40 15 16 8 37 15 46 15 9 0 20 5 23 10 3 6 19 10 35 10 16
0 32 -4 35 -10 3 -5 14 -10 23 -10 9 0 39 -11 66 -25 27 -14 55 -25 63 -25 13
0 53 -19 63 -31 9 -10 78 -39 93 -39 17 0 100 -41 105 -52 2 -5 12 -8 21 -8
10 0 40 -11 67 -25 27 -14 57 -25 67 -25 16 0 54 -17 67 -30 13 -13 94 -50
110 -50 11 0 21 -4 25 -9 3 -5 19 -12 35 -16 17 -4 30 -11 30 -16 0 -5 9 -9
19 -9 10 0 45 -13 76 -30 31 -16 66 -30 76 -30 10 0 19 -3 19 -8 0 -4 15 -13
33 -21 17 -7 45 -20 61 -27 16 -8 35 -14 43 -14 12 0 52 -19 63 -30 11 -11 51
-30 63 -30 13 0 59 -19 99 -41 10 -5 26 -9 37 -9 11 0 21 -3 23 -7 5 -13 88
-53 108 -53 11 0 21 -4 25 -9 3 -5 19 -12 35 -16 17 -4 30 -11 30 -16 0 -5 9
-9 19 -9 10 0 45 -13 76 -30 31 -16 66 -30 76 -30 10 0 19 -4 19 -10 0 -5 6
-10 13 -10 6 0 34 -11 61 -25 27 -14 55 -25 63 -25 12 0 52 -19 63 -30 13 -13
51 -30 67 -30 10 0 31 -7 47 -15 15 -8 37 -15 47 -15 11 0 19 -4 19 -10 0 -5
9 -10 19 -10 11 0 21 -3 23 -7 4 -11 87 -53 104 -53 20 0 94 -33 94 -42 0 -5
8 -8 19 -8 10 0 45 -13 77 -29 32 -16 77 -36 99 -45 22 -10 48 -21 57 -26 10
-6 24 -10 31 -10 18 0 67 -23 67 -32 0 -5 9 -8 20 -8 11 0 20 -4 20 -10 0 -5
9 -10 20 -10 11 0 28 -4 38 -9 9 -6 44 -22 77 -36 33 -15 77 -35 98 -46 22
-10 47 -19 57 -19 11 0 21 -4 25 -9 3 -5 19 -12 35 -16 17 -4 30 -11 30 -16 0
-5 9 -9 20 -9 11 0 20 -4 20 -10 0 -5 9 -10 20 -10 11 0 35 -9 55 -20 20 -11
44 -20 55 -20 11 0 20 -4 20 -10 0 -5 6 -10 13 -10 6 0 34 -11 61 -25 27 -14
55 -25 63 -25 12 0 52 -19 63 -30 13 -13 51 -30 67 -30 10 0 40 -11 67 -25 27
-14 58 -25 68 -25 10 0 18 -3 18 -7 0 -9 48 -33 65 -33 7 0 25 -6 41 -14 16
-7 44 -20 62 -27 17 -8 32 -17 32 -21 0 -5 9 -8 19 -8 10 0 45 -13 76 -30 31
-16 66 -30 76 -30 10 0 19 -4 19 -9 0 -5 13 -12 30 -16 16 -4 32 -11 35 -16 4
-5 14 -9 25 -9 16 0 45 -12 122 -51 10 -5 22 -9 28 -9 7 0 10 186 10 554 l0
555 -22 6 c-13 4 -59 24 -103 45 -44 21 -98 45 -120 54 -22 10 -48 21 -57 26
-10 6 -24 10 -31 10 -18 0 -67 23 -67 33 0 4 -9 7 -20 7 -11 0 -20 5 -20 10 0
6 -8 10 -18 10 -17 0 -60 17 -104 41 -10 5 -26 9 -37 9 -11 0 -21 3 -23 8 -4
10 -128 72 -143 72 -7 0 -33 11 -59 25 -26 14 -53 25 -60 25 -7 0 -40 13 -72
29 -32 16 -77 36 -99 45 -22 10 -48 21 -57 26 -10 6 -25 10 -33 10 -14 0 -53
18 -65 30 -12 12 -93 50 -106 50 -20 0 -94 33 -94 42 0 5 -9 8 -19 8 -10 0
-43 13 -73 29 -30 15 -71 31 -91 35 -20 4 -37 10 -37 14 0 8 -49 32 -66 32 -7
0 -42 16 -78 35 -37 19 -73 35 -80 35 -8 0 -40 14 -71 30 -31 17 -66 30 -76
30 -10 0 -19 3 -19 8 0 4 -15 13 -32 21 -18 7 -46 20 -62 27 -16 8 -35 14 -43
14 -12 0 -52 19 -63 30 -11 11 -51 30 -63 30 -8 0 -36 11 -63 25 -27 14 -55
25 -61 25 -7 0 -13 5 -13 10 0 6 -9 10 -20 10 -11 0 -35 9 -55 20 -20 11 -42
20 -49 20 -7 0 -43 16 -80 35 -37 19 -73 35 -81 35 -16 0 -99 42 -103 53 -2 4
-12 7 -21 7 -18 0 -48 12 -124 51 -22 10 -47 19 -57 19 -10 0 -20 3 -22 8 -4
10 -87 52 -104 52 -20 0 -94 33 -94 42 0 5 -8 8 -18 8 -10 0 -49 16 -88 35
-38 19 -74 35 -80 35 -6 0 -46 18 -89 40 -43 22 -86 40 -96 40 -11 0 -19 4
-19 9 0 5 -13 12 -30 16 -16 4 -32 11 -35 16 -4 5 -14 9 -25 9 -20 0 -103 40
-108 53 -2 4 -12 7 -21 7 -10 0 -40 11 -67 25 -27 14 -57 25 -67 25 -16 0 -55
18 -67 30 -12 13 -138 69 -167 75 -18 4 -33 10 -33 13 0 8 -49 32 -66 32 -7 0
-42 16 -78 35 -37 19 -73 35 -80 35 -8 0 -40 14 -71 30 -65 34 -88 36 -130 10z"/>
<path d="M11005 11530 c-3 -5 -15 -10 -26 -10 -10 0 -27 -4 -37 -9 -77 -39
-106 -51 -122 -51 -11 0 -22 -4 -25 -10 -3 -5 -16 -10 -29 -10 -12 0 -31 -7
-42 -15 -10 -8 -27 -15 -36 -15 -10 0 -33 -9 -53 -20 -20 -11 -44 -20 -55 -20
-11 0 -20 -3 -20 -8 0 -9 -46 -29 -90 -37 -44 -8 -90 -28 -90 -37 0 -5 -9 -8
-20 -8 -11 0 -35 -9 -55 -20 -20 -11 -44 -20 -55 -20 -10 0 -22 -4 -25 -10 -3
-5 -14 -10 -23 -10 -9 0 -30 -7 -46 -15 -15 -8 -34 -15 -42 -15 -7 0 -29 -9
-49 -20 -20 -11 -44 -20 -55 -20 -11 0 -20 -3 -20 -7 0 -11 -50 -33 -71 -33
-10 0 -20 -4 -23 -9 -3 -4 -24 -11 -46 -15 -22 -3 -40 -11 -40 -16 0 -6 -9
-10 -20 -10 -11 0 -35 -9 -55 -20 -20 -11 -42 -20 -50 -20 -15 0 -56 -20 -65
-31 -3 -4 -25 -10 -49 -14 -25 -4 -60 -16 -78 -26 -19 -11 -42 -19 -53 -19
-11 0 -20 -3 -20 -7 0 -9 -48 -33 -66 -33 -6 0 -25 -7 -40 -15 -16 -8 -37 -15
-46 -15 -9 0 -20 -4 -23 -10 -3 -5 -15 -10 -25 -10 -11 0 -35 -9 -55 -20 -20
-11 -44 -20 -55 -20 -11 0 -20 -4 -20 -10 0 -5 -9 -10 -20 -10 -11 0 -20 -4
-20 -9 0 -5 -20 -12 -45 -16 -25 -3 -63 -15 -85 -26 -22 -10 -58 -28 -81 -39
-22 -11 -49 -20 -59 -20 -11 0 -21 -4 -25 -9 -3 -5 -19 -13 -37 -16 -17 -4
-47 -16 -65 -26 -19 -11 -42 -19 -53 -19 -10 0 -22 -4 -25 -10 -3 -5 -17 -10
-31 -10 -13 0 -24 -3 -24 -7 0 -9 -48 -33 -66 -33 -6 0 -25 -7 -40 -15 -16 -8
-39 -15 -51 -15 -13 0 -23 -4 -23 -10 0 -5 -9 -10 -20 -10 -11 0 -20 -4 -20
-10 0 -5 -11 -10 -24 -10 -14 0 -28 -4 -31 -10 -3 -5 -15 -10 -25 -10 -11 0
-34 -8 -53 -19 -18 -10 -48 -22 -65 -26 -18 -3 -34 -11 -37 -16 -4 -5 -14 -9
-24 -9 -21 0 -71 -22 -71 -32 0 -5 -9 -8 -20 -8 -11 0 -34 -8 -53 -19 -18 -10
-53 -22 -78 -26 -24 -4 -46 -10 -49 -14 -9 -11 -50 -31 -65 -31 -8 0 -30 -9
-50 -20 -20 -11 -44 -20 -55 -20 -11 0 -20 -4 -20 -10 0 -5 -18 -13 -40 -16
-22 -4 -43 -11 -46 -15 -3 -5 -13 -9 -23 -9 -21 0 -71 -22 -71 -32 0 -5 -9 -8
-20 -8 -11 0 -35 -9 -55 -20 -20 -11 -43 -20 -51 -20 -16 0 -60 -17 -127 -51
-22 -10 -47 -19 -57 -19 -11 0 -22 -4 -25 -10 -3 -5 -17 -10 -31 -10 -13 0
-24 -4 -24 -10 0 -5 -17 -12 -37 -16 -21 -4 -53 -15 -71 -26 -18 -10 -41 -18
-52 -18 -11 0 -20 -3 -20 -7 0 -11 -50 -33 -71 -33 -10 0 -21 -4 -24 -10 -3
-5 -16 -10 -28 -10 -12 0 -31 -7 -41 -15 -11 -8 -28 -15 -38 -15 -9 0 -33 -9
-53 -20 -20 -11 -42 -20 -50 -20 -9 0 -23 -4 -33 -9 -60 -32 -132 -61 -150
-61 -11 0 -24 -4 -27 -10 -3 -5 -17 -10 -31 -10 -13 0 -24 -3 -24 -7 0 -9 -49
-33 -67 -33 -7 0 -28 -9 -48 -20 -20 -11 -40 -20 -46 -20 -6 0 -26 -7 -45 -16
l-34 -16 0 -599 c0 -515 2 -599 14 -599 8 0 18 5 21 10 3 6 14 10 24 10 21 0
71 22 71 33 0 4 8 7 19 7 10 0 32 7 47 15 16 8 39 15 51 15 12 0 25 5 28 10 3
6 17 10 31 10 13 0 24 3 24 8 0 10 50 32 71 32 10 0 21 5 24 10 3 6 17 10 31
10 13 0 24 4 24 10 0 5 17 12 38 16 20 4 52 15 70 26 18 10 39 18 47 18 9 0
23 4 33 9 73 37 106 51 117 51 7 0 26 7 41 15 16 8 39 15 52 15 12 0 22 3 22
8 0 10 50 32 71 32 10 0 21 5 24 10 3 6 17 10 31 10 13 0 24 3 24 8 0 9 49 32
69 32 9 0 29 7 45 15 15 8 37 15 47 15 11 0 19 5 19 10 0 6 9 10 20 10 11 0
20 5 20 10 0 6 11 10 24 10 14 0 28 5 31 10 3 6 17 10 30 10 13 0 26 4 30 9 3
5 19 13 37 16 17 4 47 16 65 26 19 11 39 19 46 19 18 0 67 24 67 33 0 4 11 7
24 7 14 0 28 5 31 10 3 6 16 10 28 10 12 0 35 7 51 15 15 8 37 15 47 15 11 0
19 5 19 10 0 6 9 10 20 10 11 0 20 5 20 10 0 6 9 10 20 10 11 0 34 8 52 18 18
11 50 22 71 26 21 4 54 16 73 27 19 10 40 19 47 19 18 0 67 24 67 33 0 4 11 7
24 7 14 0 28 5 31 10 3 6 16 10 28 10 12 0 35 7 51 15 15 8 37 15 47 15 11 0
19 3 19 8 0 8 48 32 66 32 10 0 44 15 116 51 10 5 26 9 35 9 10 0 31 7 47 15
15 8 34 15 40 15 18 0 66 24 66 33 0 4 11 7 24 7 14 0 28 5 31 10 3 6 17 10
30 10 13 0 26 4 30 9 3 5 19 13 37 16 17 4 47 16 65 26 19 11 40 19 47 19 12
0 44 14 118 51 10 5 26 9 35 9 10 0 31 7 47 15 15 8 37 15 47 15 11 0 19 5 19
10 0 6 9 10 20 10 11 0 20 5 20 10 0 6 9 10 20 10 11 0 34 8 52 18 18 11 50
22 71 26 21 4 54 16 73 27 19 10 43 19 54 19 10 0 22 5 25 10 3 6 17 10 31 10
13 0 24 3 24 8 0 9 49 32 69 32 9 0 29 7 45 15 15 8 37 15 47 15 11 0 19 3 19
8 0 8 49 32 67 32 7 0 28 9 48 20 20 11 44 20 55 20 11 0 20 5 20 10 0 6 10
10 23 10 12 0 35 7 51 15 15 8 34 15 40 15 18 0 66 24 66 33 0 4 11 7 24 7 14
0 28 5 31 10 3 6 14 10 24 10 10 0 32 7 47 15 16 8 39 15 52 15 12 0 22 3 22
8 0 10 50 32 71 32 10 0 21 5 24 10 3 6 17 10 31 10 13 0 24 3 24 8 0 9 49 32
69 32 9 0 29 7 45 15 15 8 34 15 40 15 18 0 66 24 66 33 0 4 11 7 24 7 14 0
28 5 31 10 3 6 17 10 30 10 13 0 26 4 30 9 3 5 19 13 37 16 17 4 47 16 65 26
19 11 42 19 53 19 10 0 22 5 25 10 10 17 72 11 110 -10 20 -11 42 -20 49 -20
7 0 34 -11 60 -25 26 -14 53 -25 61 -25 8 0 30 -9 50 -20 20 -11 44 -20 55
-20 11 0 20 -3 20 -8 0 -9 74 -42 94 -42 13 0 94 -38 106 -50 11 -11 51 -30
63 -30 13 0 59 -19 99 -41 10 -5 27 -9 38 -9 11 0 20 -3 20 -7 0 -9 48 -33 65
-33 7 0 34 -11 61 -25 27 -14 54 -25 60 -25 7 0 38 -13 69 -30 31 -16 66 -30
76 -30 10 0 19 -4 19 -10 0 -5 9 -10 20 -10 11 0 20 -4 20 -10 0 -5 8 -10 18
-10 11 0 32 -6 48 -14 16 -7 44 -20 62 -27 17 -8 32 -17 32 -21 0 -5 9 -8 20
-8 11 0 35 -9 55 -20 20 -11 44 -20 55 -20 10 0 21 -4 25 -9 3 -5 19 -12 35
-16 17 -4 30 -11 30 -16 0 -5 9 -9 19 -9 10 0 45 -13 76 -30 31 -16 66 -30 76
-30 10 0 19 -4 19 -9 0 -5 13 -12 30 -16 16 -4 32 -11 35 -16 4 -5 15 -9 25
-9 11 0 35 -9 55 -20 20 -11 44 -20 55 -20 11 0 20 -3 20 -8 0 -8 74 -42 93
-42 18 0 67 -24 67 -32 0 -5 9 -8 20 -8 11 0 20 -3 20 -7 0 -10 49 -33 67 -33
7 0 21 -4 31 -10 9 -5 35 -16 57 -25 22 -9 57 -25 78 -36 22 -10 45 -19 53
-19 13 0 52 -18 64 -30 13 -13 51 -30 67 -30 10 0 40 -11 67 -25 27 -14 57
-25 67 -25 9 0 19 -3 21 -7 4 -11 87 -53 104 -53 20 0 94 -33 94 -42 0 -5 9
-8 19 -8 10 0 45 -13 76 -30 31 -16 64 -30 72 -30 8 0 34 -11 59 -25 25 -14
51 -25 58 -25 17 0 100 -42 104 -52 2 -5 13 -8 25 -8 12 0 44 -11 71 -25 27
-14 58 -25 68 -25 10 0 18 -4 18 -10 0 -5 9 -10 20 -10 11 0 20 -3 20 -7 0
-10 49 -33 68 -33 14 0 39 -11 187 -80 33 -16 75 -32 93 -35 17 -4 32 -11 32
-16 0 -5 8 -9 18 -9 9 0 53 -17 97 -39 120 -58 151 -71 173 -71 12 0 24 -4 27
-10 3 -5 13 -10 21 -10 12 0 14 79 14 558 l0 557 -59 28 c-33 15 -64 27 -70
27 -6 0 -11 5 -11 10 0 6 -9 10 -19 10 -10 0 -45 14 -76 30 -31 17 -66 30 -76
30 -10 0 -19 4 -19 9 0 5 -13 12 -30 16 -16 4 -32 11 -35 16 -4 5 -15 9 -25 9
-11 0 -35 9 -55 20 -20 11 -44 20 -54 20 -11 0 -21 4 -23 8 -4 11 -112 62
-130 62 -19 0 -68 23 -68 33 0 4 -9 7 -19 7 -10 0 -45 14 -76 30 -31 17 -62
30 -69 30 -6 0 -33 11 -60 25 -27 14 -55 25 -62 25 -15 0 -98 42 -102 53 -2 4
-13 7 -25 7 -12 0 -44 11 -71 25 -27 14 -57 25 -67 25 -9 0 -19 3 -21 8 -4 10
-87 52 -104 52 -20 0 -94 33 -94 42 0 5 -9 8 -19 8 -10 0 -45 14 -76 30 -31
17 -64 30 -72 30 -8 0 -34 11 -59 25 -25 14 -51 25 -58 25 -17 0 -100 42 -104
53 -2 4 -13 7 -25 7 -12 0 -44 11 -71 25 -27 14 -55 25 -63 25 -12 0 -52 19
-63 30 -11 11 -51 30 -63 30 -13 0 -59 19 -99 41 -10 5 -26 9 -37 9 -11 0 -21
3 -23 8 -4 10 -87 52 -103 52 -8 0 -35 11 -61 25 -26 14 -52 25 -59 25 -7 0
-39 13 -71 29 -32 16 -77 36 -99 45 -22 10 -48 21 -57 26 -10 6 -24 10 -31 10
-18 0 -67 23 -67 33 0 4 -9 7 -20 7 -11 0 -20 5 -20 10 0 6 -8 10 -18 10 -17
0 -60 17 -104 41 -10 5 -26 9 -37 9 -11 0 -21 3 -23 8 -5 12 -88 52 -108 52
-11 0 -21 4 -25 9 -3 5 -19 12 -35 16 -17 4 -30 11 -30 16 0 5 -9 9 -19 9 -10
0 -45 14 -76 30 -31 17 -66 30 -76 30 -10 0 -19 3 -19 8 0 9 -74 42 -94 42
-17 0 -100 42 -104 53 -2 4 -12 7 -21 7 -10 0 -40 11 -67 25 -27 14 -59 25
-71 25 -13 0 -23 5 -23 10 0 6 -9 10 -20 10 -11 0 -20 3 -20 8 0 8 -48 32 -65
32 -7 0 -34 11 -61 25 -27 14 -54 25 -60 25 -7 0 -38 14 -69 30 -31 17 -66 30
-76 30 -10 0 -19 5 -19 10 0 6 -9 10 -20 10 -11 0 -20 5 -20 10 0 6 -18 10
-39 10 -22 0 -43 -4 -46 -10z"/>
<path d="M11220 9540 c0 -5 -8 -10 -19 -10 -10 0 -32 -7 -47 -15 -16 -8 -36
-15 -45 -15 -20 0 -69 -23 -69 -32 0 -5 -9 -8 -20 -8 -11 0 -35 -9 -55 -20
-20 -11 -44 -20 -55 -20 -10 0 -22 -4 -25 -10 -3 -5 -14 -10 -23 -10 -9 0 -30
-7 -46 -15 -15 -8 -37 -15 -47 -15 -10 0 -21 -4 -24 -10 -3 -5 -17 -10 -31
-10 -13 0 -24 -3 -24 -7 0 -9 -48 -33 -66 -33 -6 0 -25 -7 -40 -15 -16 -8 -36
-15 -45 -15 -20 0 -69 -23 -69 -32 0 -5 -9 -8 -20 -8 -11 0 -35 -9 -55 -20
-20 -11 -44 -20 -55 -20 -11 0 -20 -4 -20 -10 0 -5 -8 -10 -19 -10 -10 0 -32
-7 -47 -15 -16 -8 -39 -15 -51 -15 -12 0 -25 -4 -28 -10 -3 -5 -17 -10 -31
-10 -13 0 -24 -3 -24 -7 0 -9 -49 -33 -67 -33 -7 0 -27 -8 -46 -19 -18 -10
-48 -22 -65 -26 -18 -3 -34 -11 -37 -16 -4 -5 -17 -9 -30 -9 -13 0 -27 -4 -30
-10 -3 -5 -17 -10 -31 -10 -13 0 -24 -4 -24 -10 0 -5 -9 -10 -20 -10 -11 0
-20 -4 -20 -10 0 -5 -11 -10 -24 -10 -14 0 -28 -4 -31 -10 -3 -5 -15 -10 -27
-10 -20 0 -59 -15 -131 -51 -22 -10 -45 -19 -53 -19 -7 0 -29 -9 -48 -19 -19
-11 -52 -23 -73 -27 -21 -4 -53 -15 -71 -26 -18 -10 -41 -18 -52 -18 -11 0
-20 -4 -20 -10 0 -5 -9 -10 -20 -10 -11 0 -20 -4 -20 -10 0 -5 -11 -10 -24
-10 -14 0 -28 -4 -31 -10 -3 -5 -15 -10 -27 -10 -20 0 -59 -15 -131 -51 -22
-10 -45 -19 -53 -19 -14 0 -55 -20 -64 -31 -3 -4 -25 -10 -49 -14 -25 -4 -60
-16 -78 -26 -19 -11 -42 -19 -53 -19 -11 0 -20 -3 -20 -7 0 -11 -50 -33 -71
-33 -10 0 -21 -4 -24 -10 -3 -5 -16 -10 -28 -10 -12 0 -31 -7 -41 -15 -11 -8
-28 -15 -38 -15 -9 0 -33 -9 -53 -20 -20 -11 -41 -20 -48 -20 -18 0 -67 -24
-67 -32 0 -5 -11 -8 -24 -8 -14 0 -28 -4 -31 -10 -3 -5 -16 -10 -28 -10 -12 0
-35 -7 -51 -15 -15 -8 -37 -15 -47 -15 -11 0 -19 -4 -19 -10 0 -5 -9 -10 -20
-10 -11 0 -35 -9 -55 -20 -20 -11 -43 -20 -53 -20 -9 0 -26 -7 -36 -15 -11 -8
-30 -15 -42 -15 -13 0 -26 -4 -29 -10 -3 -5 -14 -10 -24 -10 -21 0 -71 -22
-71 -32 0 -5 -9 -8 -20 -8 -11 0 -35 -9 -55 -20 -20 -11 -43 -20 -51 -20 -15
0 -67 -20 -106 -41 -10 -5 -24 -9 -33 -9 -8 0 -30 -9 -50 -20 -20 -11 -44 -20
-55 -20 -11 0 -20 -4 -20 -10 0 -5 -17 -12 -37 -16 -21 -4 -53 -15 -71 -26
-18 -10 -41 -18 -52 -18 -11 0 -20 -4 -20 -10 0 -5 -9 -10 -20 -10 -11 0 -20
-4 -20 -10 0 -5 -11 -10 -24 -10 -14 0 -28 -4 -31 -10 -3 -5 -17 -10 -30 -10
-13 0 -27 -4 -30 -10 -3 -5 -14 -10 -23 -10 -9 0 -30 -7 -46 -15 -15 -8 -34
-15 -42 -15 -7 0 -29 -9 -49 -20 -20 -11 -44 -20 -55 -20 -11 0 -20 -3 -20 -8
0 -9 -46 -29 -90 -37 -44 -8 -90 -28 -90 -37 0 -5 -9 -8 -20 -8 -11 0 -35 -9
-55 -20 -20 -11 -43 -20 -53 -20 -9 0 -26 -7 -36 -15 -11 -8 -30 -15 -42 -15
-13 0 -26 -4 -29 -10 -3 -5 -14 -10 -25 -10 -10 0 -37 -9 -59 -20 -23 -11 -59
-29 -82 -40 -22 -11 -48 -20 -57 -20 -10 0 -30 -7 -46 -15 -15 -8 -35 -15 -43
-15 -43 0 -43 3 -43 -630 l0 -601 23 6 c12 4 26 11 32 16 5 5 19 9 32 9 13 0
23 5 23 10 0 6 9 10 20 10 11 0 35 9 55 20 20 11 44 20 55 20 10 0 22 5 25 10
3 6 14 10 23 10 9 0 30 7 46 15 15 8 34 15 41 15 11 0 44 14 117 51 10 5 24 9
32 9 7 0 27 7 42 15 16 8 39 15 52 15 12 0 22 5 22 10 0 6 9 10 20 10 11 0 35
9 55 20 20 11 42 20 50 20 15 0 56 20 65 31 3 4 25 10 49 14 25 4 60 16 78 26
19 11 42 19 53 19 11 0 20 5 20 10 0 6 9 10 20 10 11 0 35 9 55 20 20 11 43
20 53 20 9 0 26 7 36 15 11 8 28 15 38 15 9 0 33 9 53 20 20 11 44 20 55 20
11 0 20 5 20 10 0 6 11 10 24 10 14 0 28 5 31 10 3 6 14 10 24 10 10 0 32 7
47 15 16 8 39 15 52 15 12 0 22 3 22 8 0 8 49 32 67 32 7 0 28 9 48 20 20 11
44 20 55 20 11 0 20 5 20 10 0 6 10 10 23 10 12 0 35 7 51 15 15 8 34 15 40
15 18 0 66 24 66 33 0 4 11 7 24 7 14 0 28 5 31 10 3 6 14 10 24 10 10 0 32 7
47 15 16 8 37 15 46 15 9 0 20 5 23 10 3 6 15 10 25 10 11 0 35 9 55 20 20 11
44 20 55 20 11 0 20 5 20 10 0 6 9 10 20 10 11 0 20 4 20 9 0 5 20 12 45 16
25 3 63 15 85 26 22 10 58 28 81 39 22 11 49 20 59 20 11 0 22 5 25 10 3 6 17
10 31 10 13 0 24 4 24 10 0 5 18 13 40 16 22 4 43 11 46 15 3 5 13 9 23 9 21
0 71 22 71 33 0 4 9 7 20 7 11 0 34 8 53 19 18 10 53 22 78 26 24 4 46 10 49
14 11 13 51 31 69 31 11 0 23 5 26 10 3 6 17 10 31 10 13 0 24 3 24 8 0 9 49
32 69 32 9 0 29 7 45 15 15 8 35 15 42 15 8 0 22 4 32 9 77 39 106 51 122 51
11 0 22 5 25 10 3 6 14 10 23 10 9 0 30 7 46 15 15 8 34 15 42 15 7 0 29 9 49
20 20 11 44 20 55 20 11 0 20 3 20 8 0 9 46 29 90 37 44 8 90 28 90 37 0 5 9
8 20 8 11 0 35 9 55 20 20 11 44 20 55 20 10 0 22 5 25 10 3 6 14 10 23 10 9
0 30 7 46 15 15 8 34 15 42 15 7 0 29 9 49 20 20 11 44 20 55 20 11 0 20 5 20
10 0 6 9 10 20 10 11 0 34 8 52 18 18 11 50 22 71 26 21 4 54 16 73 27 19 10
41 19 48 19 12 0 44 14 118 51 10 5 26 9 35 9 10 0 31 7 47 15 15 8 37 15 47
15 11 0 19 5 19 10 0 6 9 10 20 10 11 0 20 5 20 10 0 6 11 10 24 10 14 0 28 5
31 10 3 6 14 10 24 10 10 0 32 7 47 15 16 8 37 15 46 15 9 0 20 5 23 10 3 6
15 10 25 10 11 0 35 9 55 20 20 11 44 20 55 20 11 0 20 5 20 10 0 6 10 10 23
10 13 0 28 5 34 11 7 7 21 4 47 -10 20 -12 45 -21 56 -21 11 0 20 -4 20 -10 0
-5 9 -10 20 -10 11 0 20 -3 20 -7 0 -10 49 -33 69 -33 9 0 38 -11 65 -25 27
-14 58 -25 68 -25 10 0 18 -3 18 -7 0 -11 50 -33 71 -33 10 0 20 -4 24 -9 3
-5 19 -12 35 -16 17 -4 30 -11 30 -16 0 -5 9 -9 20 -9 11 0 20 -4 20 -10 0 -5
9 -10 20 -10 11 0 35 -9 55 -20 20 -11 44 -20 55 -20 11 0 20 -4 20 -10 0 -5
17 -12 37 -16 20 -4 61 -20 91 -35 30 -16 62 -29 72 -29 10 0 20 -3 22 -7 5
-12 88 -53 105 -53 17 0 58 -17 147 -61 32 -16 66 -29 75 -29 9 0 25 -7 35
-15 11 -8 28 -15 37 -15 9 0 43 -13 74 -30 31 -16 66 -30 76 -30 10 0 19 -3
19 -8 0 -9 74 -42 95 -42 8 0 30 -9 50 -20 20 -11 44 -20 55 -20 11 0 20 -3
20 -7 0 -10 49 -33 67 -33 7 0 21 -4 31 -10 9 -5 35 -16 57 -25 22 -9 57 -25
78 -36 22 -10 44 -19 51 -19 17 0 66 -24 66 -32 0 -4 17 -10 37 -14 20 -4 61
-20 91 -35 30 -16 63 -29 73 -29 10 0 19 -3 19 -7 0 -10 49 -33 68 -33 15 0
72 -25 186 -81 32 -16 66 -29 75 -29 9 0 25 -7 35 -15 11 -8 28 -15 37 -15 9
0 43 -13 74 -30 31 -16 66 -30 76 -30 10 0 19 -3 19 -7 0 -10 49 -33 69 -33 9
0 38 -11 65 -25 27 -14 58 -25 68 -25 10 0 18 -3 18 -7 0 -9 48 -33 66 -33 6
0 25 -7 40 -15 16 -8 39 -15 51 -15 12 0 23 -3 25 -7 4 -11 87 -53 104 -53 7
0 33 -11 58 -25 25 -14 52 -25 60 -25 9 0 31 -9 51 -20 20 -11 42 -20 50 -20
14 0 53 -18 65 -30 13 -13 51 -30 67 -30 10 0 40 -11 67 -25 27 -14 58 -25 68
-25 10 0 18 -3 18 -7 0 -9 49 -33 67 -33 7 0 28 -9 48 -20 70 -39 65 -81 63
553 l-3 572 -22 10 c-13 5 -23 13 -23 17 0 5 -9 8 -19 8 -10 0 -45 14 -76 30
-31 17 -64 30 -72 30 -8 0 -34 11 -59 25 -25 14 -51 25 -58 25 -17 0 -100 42
-104 53 -2 4 -12 7 -22 7 -10 0 -31 7 -46 15 -16 8 -36 15 -45 15 -20 0 -69
23 -69 33 0 4 -9 7 -20 7 -11 0 -20 5 -20 10 0 6 -9 10 -20 10 -11 0 -34 8
-52 18 -18 11 -50 22 -70 26 -20 4 -38 10 -40 14 -4 10 -87 52 -104 52 -7 0
-29 9 -49 20 -20 11 -41 20 -48 20 -7 0 -34 11 -61 25 -27 14 -58 25 -68 25
-10 0 -18 5 -18 10 0 6 -9 10 -20 10 -11 0 -20 3 -20 8 0 9 -49 32 -69 32 -9
0 -38 11 -65 25 -27 14 -57 25 -67 25 -9 0 -19 3 -21 8 -5 11 -88 52 -105 52
-17 0 -58 17 -147 61 -32 16 -67 29 -77 29 -11 0 -19 3 -19 8 0 9 -74 42 -95
42 -8 0 -30 9 -50 20 -20 11 -44 20 -54 20 -11 0 -21 3 -23 8 -4 10 -87 52
-104 52 -20 0 -94 33 -94 42 0 5 -9 8 -19 8 -10 0 -45 14 -76 30 -31 17 -62
30 -69 30 -6 0 -33 11 -60 25 -27 14 -55 25 -62 25 -15 0 -98 42 -102 53 -2 4
-13 7 -25 7 -12 0 -44 11 -71 25 -27 14 -58 25 -68 25 -10 0 -18 5 -18 10 0 6
-9 10 -20 10 -11 0 -20 3 -20 8 0 9 -49 32 -69 32 -9 0 -29 7 -45 15 -15 8
-36 15 -46 15 -10 0 -20 3 -22 8 -4 10 -87 52 -103 52 -8 0 -35 11 -61 25 -26
14 -53 25 -59 25 -7 0 -39 14 -70 30 -31 17 -66 30 -76 30 -10 0 -19 3 -19 8
0 9 -74 42 -94 42 -17 0 -100 42 -104 53 -2 4 -12 7 -21 7 -10 0 -40 11 -67
25 -27 14 -59 25 -71 25 -13 0 -23 5 -23 10 0 6 -9 10 -20 10 -11 0 -20 3 -20
8 0 8 -48 32 -65 32 -7 0 -34 11 -61 25 -27 14 -54 25 -61 25 -7 0 -28 9 -48
20 -38 21 -135 28 -135 10z"/>
<path d="M11385 7500 c-3 -5 -17 -10 -31 -10 -13 0 -24 -4 -24 -10 0 -5 -17
-12 -37 -16 -21 -4 -53 -15 -71 -26 -18 -10 -41 -18 -52 -18 -11 0 -20 -4 -20
-10 0 -5 -9 -10 -20 -10 -11 0 -34 -8 -52 -18 -18 -11 -50 -22 -71 -26 -21 -4
-54 -16 -73 -27 -19 -10 -41 -19 -49 -19 -8 0 -30 -9 -50 -20 -20 -11 -44 -20
-55 -20 -11 0 -20 -4 -20 -10 0 -5 -8 -10 -19 -10 -10 0 -32 -7 -47 -15 -16
-8 -37 -15 -47 -15 -9 0 -25 -4 -35 -9 -74 -37 -106 -51 -118 -51 -7 0 -29 -9
-48 -19 -19 -11 -52 -23 -73 -27 -21 -4 -53 -15 -71 -26 -18 -10 -41 -18 -52
-18 -11 0 -20 -4 -20 -10 0 -5 -9 -10 -20 -10 -11 0 -34 -8 -52 -18 -18 -11
-50 -22 -71 -26 -21 -4 -54 -16 -73 -27 -19 -10 -41 -19 -48 -19 -12 0 -44
-14 -118 -51 -10 -5 -26 -9 -35 -9 -10 0 -31 -7 -47 -15 -15 -8 -34 -15 -40
-15 -18 0 -66 -24 -66 -32 0 -5 -11 -8 -24 -8 -14 0 -28 -4 -31 -10 -3 -5 -17
-10 -30 -10 -13 0 -26 -4 -30 -9 -3 -5 -19 -13 -37 -16 -17 -4 -47 -16 -65
-26 -19 -11 -42 -19 -53 -19 -10 0 -22 -4 -25 -10 -3 -5 -17 -10 -31 -10 -13
0 -24 -3 -24 -7 0 -10 -49 -33 -69 -33 -9 0 -29 -7 -45 -15 -15 -8 -37 -15
-47 -15 -11 0 -19 -4 -19 -10 0 -5 -9 -10 -20 -10 -11 0 -35 -9 -55 -20 -20
-11 -42 -20 -50 -20 -8 0 -30 -9 -49 -19 -19 -11 -52 -23 -73 -27 -21 -4 -53
-15 -71 -26 -18 -10 -41 -18 -52 -18 -11 0 -20 -4 -20 -10 0 -5 -9 -10 -20
-10 -11 0 -34 -8 -52 -18 -18 -11 -50 -22 -70 -26 -21 -4 -38 -11 -38 -16 0
-6 -11 -10 -24 -10 -14 0 -28 -4 -31 -10 -3 -5 -14 -10 -24 -10 -21 0 -71 -22
-71 -32 0 -5 -11 -8 -24 -8 -14 0 -28 -4 -31 -10 -3 -5 -16 -10 -28 -10 -12 0
-35 -7 -51 -15 -15 -8 -37 -15 -47 -15 -11 0 -19 -4 -19 -10 0 -5 -9 -10 -20
-10 -11 0 -20 -4 -20 -10 0 -5 -11 -10 -24 -10 -14 0 -28 -4 -31 -10 -3 -5
-17 -10 -30 -10 -13 0 -26 -4 -30 -9 -3 -5 -19 -13 -37 -16 -17 -4 -47 -16
-65 -26 -19 -11 -42 -19 -53 -19 -10 0 -22 -4 -25 -10 -3 -5 -17 -10 -31 -10
-13 0 -24 -3 -24 -8 0 -9 -46 -29 -90 -37 -44 -8 -90 -28 -90 -37 0 -5 -11 -8
-24 -8 -14 0 -28 -4 -31 -10 -3 -5 -14 -10 -24 -10 -21 0 -71 -22 -71 -32 0
-5 -10 -8 -22 -8 -13 0 -36 -7 -52 -15 -15 -8 -37 -15 -47 -15 -10 0 -21 -4
-24 -10 -3 -5 -17 -10 -31 -10 -13 0 -24 -3 -24 -7 0 -9 -49 -33 -67 -33 -7 0
-28 -9 -47 -19 -19 -11 -52 -23 -73 -27 -21 -4 -53 -15 -71 -26 -18 -10 -38
-18 -45 -18 -18 0 -67 -24 -67 -32 0 -5 -11 -8 -24 -8 -14 0 -28 -4 -31 -10
-3 -5 -16 -10 -28 -10 -12 0 -35 -7 -51 -15 -15 -8 -37 -15 -47 -15 -11 0 -19
-4 -19 -10 0 -5 -9 -10 -20 -10 -11 0 -35 -9 -55 -20 -20 -11 -43 -20 -53 -20
-9 0 -26 -7 -36 -15 -11 -8 -28 -15 -38 -15 -9 0 -33 -9 -53 -20 -20 -11 -44
-20 -55 -20 -11 0 -20 -4 -20 -10 0 -5 -11 -10 -24 -10 -14 0 -28 -4 -31 -10
-3 -5 -14 -10 -24 -10 -10 0 -32 -7 -47 -15 -16 -8 -39 -15 -51 -15 -13 0 -23
-3 -23 -7 0 -9 -48 -33 -64 -33 -6 0 -32 -10 -58 -22 l-48 -23 0 -622 c0 -409
3 -623 10 -623 6 0 10 5 10 10 0 6 11 10 24 10 14 0 28 5 31 10 3 6 17 10 31
10 13 0 24 5 24 10 0 6 9 10 20 10 11 0 20 4 20 9 0 5 21 12 46 16 25 3 62 15
80 26 19 10 43 19 54 19 11 0 20 5 20 10 0 6 9 10 20 10 11 0 34 8 52 18 18
11 50 22 71 26 21 4 54 16 73 27 19 10 43 19 54 19 10 0 22 5 25 10 3 6 17 10
31 10 13 0 24 3 24 8 0 9 49 32 69 32 9 0 29 7 45 15 15 8 37 15 47 15 11 0
19 5 19 10 0 6 9 10 20 10 11 0 35 9 55 20 20 11 44 20 55 20 11 0 20 4 20 10
0 5 18 13 40 16 22 4 43 11 46 15 3 5 13 9 24 9 16 0 45 12 122 51 10 5 24 9
33 9 8 0 30 9 49 19 19 11 52 23 73 27 21 4 53 15 71 26 18 10 38 18 45 18 18
0 67 24 67 33 0 4 11 7 24 7 14 0 28 5 31 10 3 6 16 10 28 10 12 0 35 7 51 15
15 8 37 15 47 15 11 0 19 3 19 8 0 10 50 32 71 32 10 0 21 5 24 10 3 6 16 10
28 10 12 0 31 7 41 15 11 8 30 15 42 15 13 0 26 5 29 10 3 6 14 10 24 10 21 0
71 22 71 33 0 4 11 7 24 7 14 0 28 5 31 10 3 6 14 10 24 10 10 0 32 7 47 15
16 8 39 15 52 15 12 0 22 5 22 10 0 6 9 10 20 10 11 0 35 9 55 20 20 11 42 20
50 20 9 0 23 4 33 9 39 21 91 41 106 41 8 0 31 9 51 20 20 11 44 20 55 20 11
0 20 5 20 10 0 6 9 10 20 10 11 0 35 9 55 20 20 11 44 20 53 20 10 0 27 7 38
15 10 8 29 15 41 15 12 0 25 5 28 10 3 6 14 10 24 10 21 0 71 22 71 33 0 4 11
7 24 7 14 0 28 5 31 10 3 6 14 10 24 10 10 0 32 7 47 15 16 8 39 15 52 15 12
0 22 5 22 10 0 6 9 10 20 10 11 0 35 9 55 20 20 11 42 20 50 20 15 0 56 20 65
31 3 4 25 10 49 14 25 4 60 16 78 26 19 11 42 19 53 19 11 0 20 5 20 10 0 6 9
10 20 10 11 0 34 8 52 18 18 11 50 22 71 26 21 4 54 16 73 27 19 10 43 19 54
19 10 0 22 5 25 10 3 6 17 10 31 10 13 0 24 3 24 8 0 9 49 32 69 32 9 0 29 7
45 15 15 8 37 15 47 15 11 0 19 5 19 10 0 6 9 10 20 10 11 0 35 9 55 20 20 11
44 20 55 20 10 0 22 5 25 10 3 6 14 10 23 10 9 0 30 7 46 15 15 8 37 15 47 15
10 0 21 5 24 10 3 6 17 10 31 10 13 0 24 3 24 8 0 10 50 32 71 32 10 0 21 5
24 10 3 6 15 10 27 10 20 0 59 15 131 51 22 10 45 19 53 19 8 0 22 4 32 9 55
28 111 51 142 56 44 8 90 27 90 37 0 5 11 8 24 8 14 0 28 5 31 10 3 6 15 10
25 10 11 0 35 9 55 20 19 11 53 23 75 26 22 4 43 11 46 15 7 12 91 11 99 -1 3
-5 14 -10 23 -10 9 0 30 -7 46 -15 15 -8 34 -15 42 -15 7 0 29 -9 49 -20 20
-11 44 -20 55 -20 11 0 20 -3 20 -8 0 -9 74 -42 94 -42 17 0 100 -42 104 -52
2 -5 12 -8 23 -8 10 0 34 -9 54 -20 20 -11 44 -20 55 -20 10 0 21 -4 25 -9 3
-5 19 -12 36 -16 17 -4 56 -20 86 -36 30 -16 64 -29 74 -29 10 0 19 -3 19 -7
0 -10 49 -33 69 -33 9 0 38 -11 65 -25 27 -14 58 -25 68 -25 10 0 18 -3 18 -7
0 -9 48 -33 66 -33 6 0 25 -7 40 -15 16 -8 39 -15 51 -15 12 0 23 -3 25 -7 5
-13 88 -53 108 -53 11 0 22 -4 25 -10 3 -5 17 -10 31 -10 13 0 24 -4 24 -9 0
-5 13 -12 30 -16 16 -4 32 -11 35 -16 4 -5 14 -9 25 -9 10 0 35 -9 57 -19 89
-45 151 -71 165 -71 19 0 68 -23 68 -32 0 -5 9 -8 20 -8 11 0 35 -9 55 -20 20
-11 44 -20 55 -20 10 0 21 -4 25 -9 3 -5 19 -13 37 -16 17 -4 47 -16 65 -26
19 -11 39 -19 46 -19 18 0 67 -24 67 -32 0 -5 9 -8 20 -8 11 0 20 -4 20 -10 0
-5 8 -10 19 -10 10 0 32 -7 47 -15 16 -8 36 -15 45 -15 20 0 69 -23 69 -32 0
-5 9 -8 19 -8 10 0 44 -13 74 -29 30 -16 69 -32 86 -36 17 -4 33 -11 36 -16 4
-5 15 -9 25 -9 11 0 35 -9 55 -20 20 -11 44 -20 55 -20 11 0 20 -3 20 -7 0
-10 49 -33 69 -33 9 0 38 -11 65 -25 27 -14 58 -25 68 -25 10 0 18 -3 18 -7 0
-9 48 -33 66 -33 6 0 25 -7 40 -15 16 -8 39 -15 52 -15 12 0 22 -3 22 -7 0 -9
48 -33 66 -33 15 0 98 -42 102 -52 2 -5 13 -8 25 -8 12 0 35 -7 51 -15 15 -8
34 -15 40 -15 18 0 66 -24 66 -32 0 -5 9 -8 20 -8 11 0 35 -9 55 -20 20 -11
43 -20 51 -20 18 0 58 -17 148 -61 32 -16 65 -29 73 -29 7 0 22 -5 33 -10 11
-5 29 -15 40 -20 20 -10 20 -7 20 609 l0 619 -30 7 c-16 4 -32 11 -35 16 -4 5
-14 9 -25 9 -10 0 -35 8 -57 19 -111 54 -171 80 -200 86 -18 4 -33 11 -33 16
0 5 -9 9 -19 9 -10 0 -45 14 -76 30 -31 17 -64 30 -74 30 -9 0 -25 7 -35 15
-11 8 -28 15 -37 15 -9 0 -43 14 -74 30 -31 17 -66 30 -76 30 -10 0 -19 3 -19
8 0 8 -49 32 -67 32 -19 0 -93 34 -93 42 0 5 -9 8 -20 8 -11 0 -35 9 -55 20
-20 11 -44 20 -55 20 -10 0 -21 4 -25 9 -3 5 -19 12 -35 16 -17 4 -30 11 -30
16 0 5 -9 9 -20 9 -11 0 -35 9 -55 20 -20 11 -41 20 -48 20 -18 0 -67 23 -67
32 0 4 -17 10 -37 14 -21 4 -53 15 -71 26 -18 10 -41 18 -52 18 -11 0 -20 5
-20 10 0 6 -9 10 -20 10 -11 0 -20 3 -20 8 0 9 -49 32 -69 32 -9 0 -29 7 -45
15 -15 8 -36 15 -46 15 -10 0 -20 3 -22 8 -4 10 -87 52 -104 52 -7 0 -29 9
-49 20 -20 11 -41 20 -48 20 -7 0 -34 11 -61 25 -27 14 -58 25 -68 25 -10 0
-18 5 -18 10 0 6 -9 10 -20 10 -11 0 -20 5 -20 10 0 6 -8 10 -19 10 -10 0 -32
7 -47 15 -16 8 -37 15 -47 15 -16 0 -54 17 -67 30 -11 11 -51 30 -63 30 -8 0
-36 11 -63 25 -27 14 -54 25 -61 25 -7 0 -28 9 -48 20 -20 11 -42 20 -49 20
-17 0 -100 42 -104 53 -2 4 -13 7 -25 7 -12 0 -35 7 -51 15 -15 8 -34 15 -40
15 -18 0 -66 24 -66 33 0 4 -9 7 -20 7 -11 0 -20 5 -20 10 0 6 -8 10 -19 10
-10 0 -32 7 -47 15 -16 8 -37 15 -47 15 -16 0 -54 17 -67 30 -11 11 -51 30
-63 30 -8 0 -36 11 -63 25 -27 14 -54 25 -61 25 -7 0 -28 9 -48 20 -20 11 -41
20 -48 20 -18 0 -67 24 -67 33 0 4 -9 7 -20 7 -11 0 -20 5 -20 10 0 6 -8 10
-18 10 -17 0 -60 17 -104 41 -10 5 -27 9 -38 9 -11 0 -20 5 -20 10 0 6 -9 10
-20 10 -11 0 -20 5 -20 10 0 6 -8 10 -18 10 -10 0 -41 11 -68 25 -27 14 -59
25 -71 25 -13 0 -23 3 -23 8 0 23 -102 43 -115 22z"/>
<path d="M11425 5440 c-3 -5 -16 -10 -28 -10 -12 0 -35 -7 -51 -15 -15 -8 -37
-15 -47 -15 -11 0 -19 -4 -19 -10 0 -5 -9 -10 -20 -10 -11 0 -35 -9 -55 -20
-20 -11 -42 -20 -50 -20 -9 0 -23 -4 -33 -9 -39 -21 -91 -41 -106 -41 -8 0
-31 -9 -51 -20 -20 -11 -44 -20 -55 -20 -11 0 -20 -4 -20 -10 0 -5 -9 -10 -20
-10 -11 0 -34 -8 -52 -18 -18 -11 -50 -22 -70 -26 -21 -4 -38 -11 -38 -16 0
-6 -11 -10 -24 -10 -14 0 -28 -4 -31 -10 -3 -5 -17 -10 -30 -10 -13 0 -27 -4
-30 -10 -3 -5 -17 -10 -31 -10 -13 0 -24 -3 -24 -7 0 -10 -49 -33 -69 -33 -9
0 -29 -7 -45 -15 -15 -8 -37 -15 -47 -15 -11 0 -19 -4 -19 -10 0 -5 -9 -10
-20 -10 -11 0 -35 -9 -55 -20 -20 -11 -42 -20 -49 -20 -8 0 -27 -7 -42 -15
-16 -8 -37 -15 -46 -15 -9 0 -20 -4 -23 -10 -3 -5 -14 -10 -25 -10 -16 0 -45
-12 -122 -51 -10 -5 -24 -9 -32 -9 -7 0 -27 -7 -42 -15 -16 -8 -36 -15 -45
-15 -20 0 -69 -23 -69 -32 0 -5 -11 -8 -24 -8 -14 0 -28 -4 -31 -10 -3 -5 -15
-10 -26 -10 -18 0 -58 -18 -69 -31 -3 -4 -25 -10 -49 -14 -25 -4 -60 -16 -78
-26 -19 -11 -42 -19 -53 -19 -11 0 -20 -3 -20 -7 0 -11 -50 -33 -71 -33 -10 0
-21 -4 -24 -10 -3 -5 -16 -10 -28 -10 -12 0 -31 -7 -41 -15 -11 -8 -28 -15
-38 -15 -9 0 -33 -9 -53 -20 -20 -11 -42 -20 -50 -20 -9 0 -23 -4 -33 -9 -78
-39 -107 -51 -147 -56 -25 -4 -45 -11 -45 -16 0 -5 -9 -9 -20 -9 -11 0 -20 -4
-20 -10 0 -5 -9 -10 -20 -10 -11 0 -35 -9 -55 -20 -20 -11 -44 -20 -55 -20
-11 0 -20 -4 -20 -10 0 -5 -10 -10 -22 -10 -13 0 -36 -7 -52 -15 -15 -8 -34
-15 -40 -15 -18 0 -66 -24 -66 -32 0 -5 -11 -8 -24 -8 -14 0 -28 -4 -31 -10
-3 -5 -14 -10 -24 -10 -10 0 -32 -7 -47 -15 -16 -8 -39 -15 -51 -15 -13 0 -23
-4 -23 -10 0 -5 -9 -10 -20 -10 -11 0 -35 -9 -55 -20 -20 -11 -44 -20 -55 -20
-11 0 -20 -4 -20 -10 0 -5 -9 -10 -20 -10 -11 0 -20 -4 -20 -9 0 -5 -21 -12
-46 -16 -25 -3 -62 -15 -80 -26 -19 -10 -43 -19 -54 -19 -11 0 -20 -4 -20 -10
0 -5 -9 -10 -20 -10 -11 0 -34 -8 -52 -18 -18 -11 -50 -22 -71 -26 -21 -4 -54
-16 -73 -27 -19 -10 -40 -19 -47 -19 -18 0 -67 -24 -67 -32 0 -5 -11 -8 -24
-8 -14 0 -28 -4 -31 -10 -3 -5 -14 -10 -24 -10 -10 0 -32 -7 -47 -15 -16 -8
-39 -15 -51 -15 -13 0 -23 -3 -23 -7 0 -11 -50 -33 -71 -33 -10 0 -21 -4 -24
-10 -3 -5 -17 -10 -31 -10 -13 0 -24 -4 -24 -10 0 -5 -9 -10 -20 -10 -11 0
-20 -4 -20 -10 0 -5 -10 -10 -22 -10 -13 0 -36 -7 -52 -15 -15 -8 -35 -15 -42
-15 -8 0 -22 -4 -32 -9 -77 -39 -106 -51 -122 -51 -11 0 -22 -4 -25 -10 -3 -5
-16 -10 -29 -10 -12 0 -31 -7 -42 -15 -10 -8 -27 -15 -36 -15 -10 0 -33 -9
-53 -20 -20 -11 -44 -20 -55 -20 -11 0 -20 -4 -20 -10 0 -5 -8 -10 -19 -10
-10 0 -32 -7 -47 -15 -16 -8 -36 -15 -45 -15 -20 0 -69 -23 -69 -32 0 -5 -11
-8 -24 -8 -14 0 -28 -4 -31 -10 -3 -5 -15 -10 -25 -10 -11 0 -35 -9 -54 -19
-19 -11 -52 -23 -73 -27 -21 -4 -53 -15 -71 -26 -18 -10 -38 -18 -45 -18 -18
0 -67 -24 -67 -32 0 -5 -7 -8 -17 -8 -9 0 -34 -8 -55 -17 l-38 -17 0 -808 c0
-498 4 -808 9 -808 6 0 12 4 16 9 3 6 26 13 50 17 25 3 48 10 51 15 3 5 13 9
23 9 21 0 71 22 71 33 0 4 11 7 24 7 14 0 28 5 31 10 3 6 14 10 24 10 10 0 32
7 47 15 16 8 39 15 52 15 12 0 22 5 22 10 0 6 11 10 24 10 14 0 28 4 31 10 3
5 14 10 25 10 10 0 35 9 57 19 72 36 111 51 131 51 12 0 24 5 27 10 3 5 17 10
31 10 13 0 24 5 24 10 0 6 9 10 20 10 11 0 35 9 55 20 20 11 42 20 50 20 9 0
23 4 33 9 43 23 92 41 110 41 12 0 24 5 27 10 3 6 17 10 31 10 13 0 24 5 24
10 0 6 9 10 20 10 11 0 35 9 55 20 20 11 44 20 55 20 10 0 22 4 25 10 3 6 14
10 23 10 9 0 30 7 46 15 15 8 37 15 47 15 10 0 21 5 24 10 3 5 17 10 31 10 13
0 24 5 24 10 0 6 9 10 20 10 11 0 35 9 54 19 18 11 55 23 80 26 25 4 46 11 46
16 0 5 9 9 20 9 11 0 20 5 20 10 0 6 11 10 24 10 14 0 28 5 31 10 3 6 15 10
26 10 18 0 58 18 69 31 3 4 25 10 49 14 25 4 60 16 78 26 19 11 42 19 53 19
11 0 20 5 20 10 0 6 11 10 24 10 14 0 28 5 31 10 3 6 14 10 24 10 10 0 32 7
47 15 16 8 37 15 46 15 9 0 20 5 23 10 3 6 15 10 25 10 11 0 35 9 55 20 20 11
44 20 55 20 11 0 20 5 20 10 0 6 8 10 19 10 10 0 32 7 47 15 16 8 37 15 47 15
9 0 25 4 35 9 77 39 106 51 122 51 11 0 22 5 25 10 3 6 17 10 31 10 13 0 24 5
24 10 0 6 8 10 19 10 10 0 32 7 47 15 16 8 39 15 51 15 12 0 25 4 28 10 3 6
17 10 31 10 13 0 24 3 24 8 0 10 50 32 71 32 10 0 21 5 24 10 3 6 16 10 28 10
12 0 31 7 41 15 11 8 30 15 42 15 13 0 26 5 29 10 3 6 17 10 30 10 13 0 27 5
30 10 3 6 17 10 31 10 13 0 24 3 24 8 0 10 50 32 71 32 10 0 20 4 23 9 3 4 24
11 46 15 22 3 56 15 75 26 20 11 44 20 55 20 10 0 22 5 25 10 3 6 17 10 31 10
13 0 24 3 24 8 0 9 49 32 69 32 9 0 29 7 45 15 15 8 37 15 47 15 11 0 19 5 19
10 0 6 11 10 24 10 14 0 28 5 31 10 3 6 15 10 25 10 11 0 35 9 54 19 19 11 52
23 73 27 21 4 53 15 71 26 18 10 41 18 52 18 11 0 20 5 20 10 0 6 9 10 20 10
11 0 34 8 52 18 18 11 50 22 71 26 21 4 54 16 73 27 19 10 43 19 54 19 10 0
22 5 25 10 3 6 17 10 31 10 13 0 24 5 24 10 0 6 9 10 20 10 11 0 20 5 20 10 0
6 11 10 24 10 14 0 27 4 30 9 4 5 29 12 56 16 28 4 50 11 50 16 0 5 9 9 20 9
11 0 20 5 20 10 0 6 11 10 24 10 14 0 28 5 31 10 3 6 15 10 26 10 18 0 58 18
69 31 3 4 25 10 49 14 25 4 60 16 78 26 19 11 42 19 53 19 11 0 20 5 20 10 0
6 9 10 20 10 11 0 34 8 53 19 18 10 52 22 75 26 23 4 44 11 48 16 3 5 14 9 24
9 11 0 35 9 55 20 38 21 100 27 110 10 3 -5 14 -10 24 -10 21 0 71 -22 71 -32
0 -5 10 -8 23 -8 12 0 35 -7 51 -15 15 -8 34 -15 40 -15 18 0 66 -24 66 -32 0
-5 9 -8 20 -8 11 0 35 -9 55 -20 20 -11 43 -20 51 -20 16 0 60 -17 127 -51 22
-10 44 -19 51 -19 18 0 66 -24 66 -32 0 -5 10 -8 23 -8 12 0 35 -7 51 -15 15
-8 34 -15 40 -15 18 0 66 -24 66 -32 0 -5 9 -8 20 -8 11 0 35 -9 55 -20 20
-11 44 -20 55 -20 10 0 21 -4 25 -9 3 -5 19 -13 37 -16 17 -4 47 -16 65 -26
19 -11 40 -19 47 -19 8 0 31 -9 53 -19 67 -34 111 -51 127 -51 8 0 31 -9 51
-20 20 -11 44 -20 55 -20 11 0 20 -3 20 -7 0 -9 48 -33 66 -33 6 0 25 -7 40
-15 16 -8 39 -15 52 -15 12 0 22 -3 22 -7 0 -9 49 -33 67 -33 7 0 28 -9 48
-20 20 -11 44 -20 55 -20 11 0 20 -4 20 -10 0 -5 17 -12 38 -16 20 -4 52 -15
70 -26 18 -10 41 -18 52 -18 11 0 20 -3 20 -7 0 -9 48 -33 66 -33 6 0 25 -7
40 -15 16 -8 39 -15 52 -15 12 0 22 -3 22 -7 0 -9 49 -33 67 -33 7 0 28 -9 48
-20 20 -11 44 -20 55 -20 11 0 20 -4 20 -10 0 -5 17 -12 38 -16 20 -4 52 -15
70 -26 18 -10 41 -18 52 -18 11 0 20 -4 20 -10 0 -5 9 -10 19 -10 10 0 43 -13
73 -29 30 -15 71 -31 92 -35 21 -4 53 -16 72 -27 19 -10 40 -19 47 -19 18 0
67 -24 67 -32 0 -5 8 -8 19 -8 10 0 32 -7 47 -15 16 -8 36 -15 46 -15 9 0 35
-9 57 -20 23 -11 59 -29 82 -40 22 -11 49 -20 59 -20 11 0 21 -4 25 -9 3 -5
19 -13 37 -16 17 -4 47 -16 65 -26 19 -11 40 -19 47 -19 12 0 44 -14 118 -51
10 -5 26 -9 35 -9 10 0 40 -11 67 -25 27 -14 58 -25 68 -25 10 0 18 -4 18 -10
0 -5 9 -10 20 -10 11 0 34 -8 52 -18 18 -11 50 -22 71 -26 l37 -7 0 803 0 803
-32 14 c-18 8 -35 17 -38 20 -10 12 -50 31 -64 31 -7 0 -27 7 -42 15 -16 8
-39 15 -51 15 -13 0 -23 5 -23 10 0 6 -9 10 -20 10 -11 0 -20 5 -20 10 0 6 -9
10 -20 10 -11 0 -35 9 -55 20 -20 11 -44 20 -55 20 -11 0 -20 3 -20 8 0 9 -74
42 -95 42 -8 0 -30 9 -50 20 -20 11 -44 20 -55 20 -11 0 -20 3 -20 8 0 8 -48
32 -66 32 -6 0 -25 7 -40 15 -16 8 -39 15 -51 15 -12 0 -23 3 -25 8 -4 10 -87
52 -104 52 -7 0 -28 8 -47 19 -18 10 -48 22 -65 26 -18 3 -34 11 -37 16 -4 5
-14 9 -25 9 -10 0 -38 10 -62 21 -107 53 -121 59 -136 59 -10 0 -30 7 -46 15
-15 8 -36 15 -46 15 -10 0 -20 3 -22 8 -5 12 -88 52 -108 52 -11 0 -21 4 -25
9 -3 5 -19 13 -37 16 -17 4 -47 16 -65 26 -19 11 -39 19 -46 19 -18 0 -67 24
-67 33 0 4 -8 7 -18 7 -17 0 -60 17 -104 41 -10 5 -24 9 -31 9 -18 0 -67 23
-67 33 0 4 -9 7 -20 7 -11 0 -35 9 -55 20 -20 11 -43 20 -53 20 -9 0 -26 7
-36 15 -11 8 -28 15 -37 15 -9 0 -43 14 -74 30 -31 17 -66 30 -76 30 -10 0
-19 3 -19 8 0 9 -49 32 -69 32 -9 0 -29 7 -45 15 -15 8 -37 15 -47 15 -11 0
-19 5 -19 10 0 6 -9 10 -20 10 -11 0 -20 3 -20 8 0 8 -48 32 -66 32 -6 0 -25
7 -40 15 -16 8 -39 15 -51 15 -13 0 -23 3 -23 8 0 8 -49 32 -67 32 -7 0 -28 9
-48 20 -20 11 -44 20 -55 20 -11 0 -20 4 -20 9 0 5 -13 12 -30 16 -16 4 -32
11 -35 16 -4 5 -14 9 -24 9 -21 0 -71 22 -71 33 0 4 -9 7 -20 7 -11 0 -35 9
-55 20 -20 11 -42 20 -50 20 -21 0 -95 33 -95 42 0 5 -9 8 -20 8 -11 0 -35 9
-55 20 -20 11 -44 20 -55 20 -10 0 -21 4 -25 9 -3 5 -19 12 -36 16 -17 4 -56
20 -86 36 -30 16 -64 29 -74 29 -10 0 -19 3 -19 8 0 8 -48 32 -66 32 -6 0 -25
7 -40 15 -16 8 -39 15 -51 15 -13 0 -23 5 -23 10 0 6 -20 10 -44 10 -25 0 -48
-4 -51 -10z"/>
</g>
</svg>
